<svg width="24" height="18" viewBox="0 0 24 18" fill="none" xmlns="http://www.w3.org/2000/svg">
<path d="M20.3172 1.49236C18.7872 0.802363 17.1472 0.292363 15.4322 0.0023627C15.417 -0.000569382 15.4012 0.00132016 15.387 0.00777004C15.3728 0.0142199 15.361 0.024911 15.3532 0.0383627C15.1432 0.407363 14.9092 0.888363 14.7452 1.26836C12.9263 0.996599 11.0771 0.996599 9.25824 1.26836C9.07557 0.847223 8.86958 0.436587 8.64124 0.0383627C8.6335 0.0247454 8.62179 0.0138125 8.60767 0.00702283C8.59356 0.000233201 8.57771 -0.00209028 8.56224 0.00036261C6.84824 0.290363 5.20824 0.800363 3.67724 1.49136C3.66407 1.49689 3.6529 1.50631 3.64524 1.51836C0.533237 6.09336 -0.319764 10.5554 0.0992365 14.9614C0.100402 14.9722 0.103752 14.9826 0.109081 14.992C0.114411 15.0015 0.121609 15.0098 0.130236 15.0164C1.94663 16.3388 3.97257 17.3462 6.12324 17.9964C6.13823 18.001 6.15426 18.001 6.16925 17.9963C6.18423 17.9917 6.19747 17.9826 6.20724 17.9704C6.66924 17.3504 7.08124 16.6954 7.43324 16.0074C7.45424 15.9674 7.43424 15.9194 7.39224 15.9034C6.74624 15.6601 6.12032 15.3665 5.52024 15.0254C5.50945 15.0192 5.50037 15.0105 5.49379 14.9999C5.48722 14.9894 5.48336 14.9774 5.48257 14.965C5.48178 14.9526 5.48407 14.9402 5.48925 14.9289C5.49443 14.9177 5.50233 14.9078 5.51224 14.9004C5.63824 14.8074 5.76424 14.7104 5.88424 14.6134C5.89504 14.6046 5.90805 14.5991 5.92182 14.5973C5.93559 14.5956 5.94958 14.5976 5.96224 14.6034C9.88924 16.3674 14.1422 16.3674 18.0232 14.6034C18.0359 14.5973 18.0501 14.5949 18.064 14.5965C18.078 14.5981 18.0912 14.6036 18.1022 14.6124C18.2222 14.7104 18.3472 14.8074 18.4742 14.9004C18.4842 14.9077 18.4923 14.9174 18.4976 14.9286C18.503 14.9398 18.5054 14.9521 18.5048 14.9645C18.5043 14.9769 18.5006 14.9889 18.4942 14.9995C18.4878 15.0102 18.4789 15.019 18.4682 15.0254C17.8702 15.3694 17.2482 15.6604 16.5952 15.9024C16.5852 15.906 16.5761 15.9117 16.5684 15.9192C16.5608 15.9266 16.5548 15.9356 16.551 15.9456C16.5471 15.9555 16.5454 15.9662 16.5459 15.9768C16.5465 15.9875 16.5493 15.9979 16.5542 16.0074C16.9142 16.6944 17.3262 17.3484 17.7792 17.9694C17.7887 17.9821 17.8018 17.9916 17.8168 17.9966C17.8318 18.0017 17.8481 18.0019 17.8632 17.9974C20.0176 17.349 22.0468 16.3411 23.8652 15.0164C23.8741 15.0102 23.8816 15.0021 23.8871 14.9928C23.8926 14.9835 23.8961 14.9731 23.8972 14.9624C24.3972 9.86836 23.0592 5.44236 20.3482 1.52036C20.3416 1.50762 20.3306 1.49768 20.3172 1.49236ZM8.02024 12.2784C6.83824 12.2784 5.86324 11.2094 5.86324 9.89836C5.86324 8.58636 6.81924 7.51836 8.02024 7.51836C9.23024 7.51836 10.1962 8.59536 10.1772 9.89836C10.1772 11.2104 9.22124 12.2784 8.02024 12.2784ZM15.9952 12.2784C14.8122 12.2784 13.8382 11.2094 13.8382 9.89836C13.8382 8.58636 14.7932 7.51836 15.9952 7.51836C17.2052 7.51836 18.1712 8.59536 18.1522 9.89836C18.1522 11.2104 17.2062 12.2784 15.9952 12.2784Z" fill="white" fill-opacity="0.9"/>
</svg>
