<svg width="20" height="22" viewBox="0 0 20 22" fill="none" xmlns="http://www.w3.org/2000/svg">
<path d="M10.6039 0H14.5372C14.5372 0 14.319 4.83286 20 5.17204V8.90788C20 8.90788 16.9682 9.08991 14.5372 7.31452L14.5797 15.0277C14.5797 16.4067 14.1522 17.7547 13.3512 18.9012C12.5502 20.0478 11.4117 20.9415 10.0797 21.4692C8.7477 21.9969 7.28199 22.135 5.86791 21.8661C4.45384 21.5971 3.15491 20.9331 2.13538 19.9581C1.11585 18.983 0.421506 17.7407 0.140153 16.3883C-0.141199 15.0358 0.00307344 13.634 0.554728 12.3599C1.10638 11.0859 2.04064 9.99692 3.23937 9.23072C4.4381 8.46452 5.84745 8.0555 7.28922 8.05538H8.31187V11.7955V11.875C7.64536 11.6762 6.93024 11.6838 6.26853 11.8968C5.60683 12.1097 5.03233 12.5171 4.627 13.0608C4.22168 13.6045 4.00623 14.2567 4.01138 14.9244C4.01654 15.5921 4.24205 16.2413 4.65573 16.7792C5.06941 17.3171 5.65014 17.7163 6.31506 17.9198C6.97999 18.1234 7.69515 18.1209 8.35852 17.9128C9.02188 17.7046 9.59957 17.3014 10.0092 16.7606C10.4188 16.2199 10.6394 15.5692 10.6395 14.9015L10.6039 0Z" fill="white" fill-opacity="0.9"/>
</svg>
