<svg width="24" height="20" viewBox="0 0 24 20" fill="none" xmlns="http://www.w3.org/2000/svg">
<path d="M23.643 2.93715C22.808 3.30715 21.911 3.55715 20.968 3.67015C21.941 3.08794 22.669 2.17161 23.016 1.09215C22.1019 1.63514 21.1014 2.01734 20.058 2.22215C19.3564 1.47301 18.4271 0.976472 17.4143 0.80962C16.4016 0.642767 15.3621 0.814937 14.4572 1.2994C13.5524 1.78386 12.8328 2.55351 12.4102 3.48885C11.9875 4.42419 11.8855 5.4729 12.12 6.47215C10.2677 6.37914 8.45564 5.8977 6.80144 5.05905C5.14723 4.22041 3.68785 3.04331 2.51801 1.60415C2.11801 2.29415 1.88801 3.09415 1.88801 3.94615C1.88757 4.71314 2.07644 5.46839 2.43789 6.14488C2.79934 6.82137 3.32217 7.39818 3.96001 7.82415C3.22029 7.80061 2.49688 7.60073 1.85001 7.24115V7.30115C1.84994 8.37689 2.22204 9.41952 2.90319 10.2521C3.58434 11.0848 4.53258 11.6561 5.58701 11.8691C4.9008 12.0549 4.18135 12.0822 3.48301 11.9491C3.78051 12.8748 4.36001 13.6842 5.14038 14.2641C5.92075 14.844 6.86293 15.1653 7.83501 15.1831C6.18484 16.4786 4.1469 17.1812 2.04901 17.1781C1.67739 17.1782 1.30609 17.1565 0.937012 17.1131C3.06649 18.4823 5.54535 19.209 8.07701 19.2061C16.647 19.2061 21.332 12.1081 21.332 5.95215C21.332 5.75215 21.327 5.55015 21.318 5.35015C22.2293 4.69112 23.0159 3.87504 23.641 2.94015L23.643 2.93715Z" fill="white" fill-opacity="0.9"/>
</svg>
