<svg width="22" height="15" viewBox="0 0 22 15" fill="none" xmlns="http://www.w3.org/2000/svg">
<path d="M11.006 14.012H10.986C10.924 14.012 4.721 14 3.156 13.575C2.73314 13.4611 2.34762 13.2381 2.03804 12.9283C1.72846 12.6186 1.50568 12.2329 1.392 11.81C1.11059 10.2224 0.97469 8.61235 0.986004 7C0.978738 5.38501 1.11831 3.77271 1.403 2.183C1.51989 1.75937 1.7437 1.3729 2.05295 1.06067C2.36221 0.748445 2.74652 0.520943 3.169 0.4C4.691 8.9407e-08 10.723 0 10.979 0H11C11.063 0 17.282 0.0119998 18.831 0.437C19.69 0.67 20.361 1.341 20.593 2.2C20.883 3.794 21.02 5.411 21 7.031C21.007 8.64403 20.8671 10.2543 20.582 11.842C20.4668 12.2645 20.2432 12.6494 19.9332 12.9587C19.6232 13.268 19.2377 13.4908 18.815 13.605C17.295 14.008 11.262 14.012 11.006 14.012ZM9.006 4.005L9.001 10.005L14.213 7.005L9.006 4.005Z" fill="white" fill-opacity="0.9"/>
</svg>
